<svg width="109" height="71" viewBox="0 0 109 71" fill="none" xmlns="http://www.w3.org/2000/svg">
<path d="M5.30627 17.8758C10.4686 16.4679 15.5559 7.79954 18.9674 3.87631C19.1198 3.70109 21.8323 1.13659 20.9552 2.98812C18.7245 7.69736 15.0594 11.6601 11.735 15.5919C9.10943 18.6972 6.45097 21.8057 3.91056 24.9812C1.30922 28.2329 3.8289 24.5471 4.75645 23.3741C8.10782 19.1355 11.8078 15.1807 15.6261 11.3624C17.4008 9.58774 21.6857 4.14884 24.7617 4.51072C27.276 4.80653 21.9939 13.8165 21.7588 14.1962C17.5258 21.0341 11.7667 27.0839 6.23675 32.8903C6.18815 32.9413 2.14521 37.2172 3.19155 35.8086C6.40902 31.4774 10.1834 27.8287 14.1035 24.1354C15.7576 22.577 27.3216 10.2507 21.0398 18.9754C15.8555 26.1758 -2.46551 45.5635 3.52991 39.023C12.042 29.7371 20.8174 20.4923 30.2177 12.0814C30.9175 11.4554 34.2156 8.97119 32.9669 11.87C30.5866 17.3956 26.6479 22.4133 23.1545 27.2651C21.8843 29.0294 18.4138 34.4858 19.2212 32.4674C20.76 28.6202 26.7586 24.547 29.6256 21.7669C32.8391 18.6508 36.1821 15.3002 39.9877 12.885C42.8797 11.0498 36.617 20.203 36.1812 20.7518C32.868 24.9252 29.1287 28.8081 25.6499 32.848C21.6959 37.4398 25.8405 33.0061 27.7646 31.1985C33.3388 25.9622 38.7469 20.4861 44.5555 15.5073C45.143 15.0038 53.2025 8.24608 50.8997 12.8004C46.3793 21.7408 25.5621 43.7082 32.84 36.8237C37.6111 32.3105 42.3323 27.6099 47.3893 23.4164C51.7687 19.7846 49.9737 22.5938 47.6007 25.4888C43.0341 31.06 38.2729 36.436 33.3898 41.7299C31.588 43.6832 26.3059 48.7928 31.4443 43.5062C36.9577 37.8337 42.0499 31.7603 47.6853 26.2078C48.0542 25.8443 56.8902 17.4071 53.5643 21.8092C45.9904 31.8334 20.3521 59.5245 28.5682 50.0196C34.9203 42.6711 41.9509 35.8081 48.785 28.9146C52.6259 25.0403 56.5078 21.3179 60.8812 18.045C62.5731 16.7788 66.9631 12.7412 66.2949 14.746C64.4368 20.3203 57.4183 26.6264 53.6066 30.9025C51.0706 33.7473 48.3911 36.4562 45.6975 39.1499C43.5621 41.2853 44.7789 39.9859 45.5706 39.1076C48.1984 36.1924 50.9854 32.8416 54.4101 30.8179C58.7376 28.2608 48.1413 38.7162 44.5132 42.1951C40.7879 45.7674 37.2859 49.507 33.6436 53.1494C31.3562 55.4367 35.168 51.2786 35.7583 50.7809C37.8655 49.0042 40.9874 47.5819 37.7038 50.8655C33.7367 54.8326 43.8737 41.205 48.362 37.8388C48.8811 37.4494 44.3922 43.0067 43.7519 43.76C42.9569 44.6954 36.6334 53.4411 34.997 52.8956C34.1133 52.601 36.1462 51.4272 36.7734 50.7386C40.645 46.4873 44.7216 42.411 48.8696 38.4309C55.7495 31.8295 63.258 24.2811 71.624 19.483C73.8888 18.184 65.4334 29.2067 64.9415 29.8028C59.7128 36.1388 54.5143 42.5138 48.7004 48.3278C44.3953 52.6329 57.6271 40.0423 62.2346 36.0624C69.2818 29.9752 76.4477 23.96 83.974 18.4679C87.9576 15.5609 93.0521 11.5403 98.1003 10.5165C106.917 8.72853 88.9952 30.9682 88.711 31.3254C79.0957 43.4077 68.635 55.1239 57.4553 65.7954C48.9943 73.8719 60.9653 61.6542 62.15 60.5086C74.194 48.8631 86.3655 36.7836 99.6229 26.5038C101.66 24.9242 105.995 19.83 106.179 22.4013C106.318 24.3576 98.7243 31.5795 98.1849 32.1713C87.7611 43.608 76.539 54.2945 65.449 65.0764" stroke="#F30EC1" stroke-width="4" stroke-linecap="round"/>
</svg>
